# xmcd
#
# Track frame offsets:
#	187
#	12760
#	32847
#	42800
#	55345
#	63807
#	80187
#	95865
#	108847
#	122242
#	135582
#	147447
#	164180
#	181155
#	195572
#	206190
#	218260
#	231835
#	245560
#	257722
#
# Disc length: 3607 seconds
#
# Revision: 1
# Processed by: cddbd v1.5.1PL0 Copyright (c) Steve Scherf et al.
# Submitted via: CDex 1.50Beta5
#
DISCID=250e1514
DTITLE=Various Artist - スクリーン・ミュージック ベスト・セレクション
DYEAR=1900
DGENRE=
TTITLE0=エデンの東
TTITLE1=トゥ・ラブ・アゲイン〜「愛情物語」より
TTITLE2=男と女
TTITLE3=夏の日の恋〜「避暑地の出来事」より
TTITLE4=個人教授
TTITLE5=白い恋人たち
TTITLE6=ベン・ハー
TTITLE7=ロミオとジュリエット
TTITLE8=禁じられた遊び
TTITLE9=「鉄道員」のテーマ
TTITLE10=太陽がいっぱい
TTITLE11=ある愛の詩
TTITLE12=ララのテーマ〜「ドクトル・ジバゴ」より
TTITLE13=慕情
TTITLE14=ひまわり
TTITLE15=ゴッド・ファーザー〜愛のテーマ
TTITLE16=雨にぬれても〜「明日に向かって撃て!」より
TTITLE17=タラのテーマ〜「風と共に去りぬ」より
TTITLE18=ムーン・リバー〜「ティファニーで朝食を」より
TTITLE19=クワイ河マーチ〜「戦場にかける橋」より
EXTD=
EXTT0=
EXTT1=
EXTT2=
EXTT3=
EXTT4=
EXTT5=
EXTT6=
EXTT7=
EXTT8=
EXTT9=
EXTT10=
EXTT11=
EXTT12=
EXTT13=
EXTT14=
EXTT15=
EXTT16=
EXTT17=
EXTT18=
EXTT19=
PLAYORDER=
